{
    "streams": [
        {
            "index": 0,
            "codec_name": "mpeg2video",
            "codec_long_name": "MPEG-2 video",
            "profile": "Main",
            "codec_type": "video",
            "codec_tag_string": "[2][0][0][0]",
            "codec_tag": "0x0002",
            "width": 720,
            "height": 576,
            "coded_width": 0,
            "coded_height": 0,
            "closed_captions": 0,
            "film_grain": 0,
            "has_b_frames": 1,
            "sample_aspect_ratio": "64:45",
            "display_aspect_ratio": "16:9",
            "pix_fmt": "yuv420p",
            "level": 8,
            "color_range": "tv",
            "chroma_location": "left",
            "field_order": "tt",
            "refs": 1,
            "id": "0x100",
            "r_frame_rate": "25/1",
            "avg_frame_rate": "25/1",
            "time_base": "1/90000",
            "start_pts": 150573,
            "start_time": "1.673033",
            "duration_ts": 26982000,
            "duration": "299.800000",
            "extradata_size": 150,
            "disposition": {
                "default": 0,
                "dub": 0,
                "original": 0,
                "comment": 0,
                "lyrics": 0,
                "karaoke": 0,
                "forced": 0,
                "hearing_impaired": 0,
                "visual_impaired": 0,
                "clean_effects": 0,
                "attached_pic": 0,
                "timed_thumbnails": 0,
                "captions": 0,
                "descriptions": 0,
                "metadata": 0,
                "dependent": 0,
                "still_image": 0
            },
            "side_data_list": [
                {
                    "side_data_type": "CPB properties",
                    "max_bitrate": 15000000,
                    "min_bitrate": 0,
                    "avg_bitrate": 0,
                    "buffer_size": 1835008,
                    "vbv_delay": -1
                }
            ]
        },
        {
            "index": 1,
            "codec_name": "mp2",
            "codec_long_name": "MP2 (MPEG audio layer 2)",
            "codec_type": "audio",
            "codec_tag_string": "[3][0][0][0]",
            "codec_tag": "0x0003",
            "sample_fmt": "fltp",
            "sample_rate": "48000",
            "channels": 2,
            "channel_layout": "stereo",
            "bits_per_sample": 0,
            "id": "0x101",
            "r_frame_rate": "0/0",
            "avg_frame_rate": "0/0",
            "time_base": "1/90000",
            "start_pts": 126000,
            "start_time": "1.400000",
            "duration_ts": 26991360,
            "duration": "299.904000",
            "bit_rate": "192000",
            "disposition": {
                "default": 0,
                "dub": 0,
                "original": 0,
                "comment": 0,
                "lyrics": 0,
                "karaoke": 0,
                "forced": 0,
                "hearing_impaired": 0,
                "visual_impaired": 0,
                "clean_effects": 0,
                "attached_pic": 0,
                "timed_thumbnails": 0,
                "captions": 0,
                "descriptions": 0,
                "metadata": 0,
                "dependent": 0,
                "still_image": 0
            },
            "tags": {
                "language": "eng"
            }
        },
        {
            "index": 2,
            "codec_name": "dvb_subtitle",
            "codec_long_name": "DVB subtitles",
            "codec_type": "subtitle",
            "codec_tag_string": "[6][0][0][0]",
            "codec_tag": "0x0006",
            "id": "0x102",
            "r_frame_rate": "0/0",
            "avg_frame_rate": "0/0",
            "time_base": "1/90000",
            "start_pts": 126000,
            "start_time": "1.400000",
            "duration_ts": 27006573,
            "duration": "300.073033",
            "extradata_size": 5,
            "disposition": {
                "default": 0,
                "dub": 0,
                "original": 0,
                "comment": 0,
                "lyrics": 0,
                "karaoke": 0,
                "forced": 0,
                "hearing_impaired": 0,
                "visual_impaired": 0,
                "clean_effects": 0,
                "attached_pic": 0,
                "timed_thumbnails": 0,
                "captions": 0,
                "descriptions": 0,
                "metadata": 0,
                "dependent": 0,
                "still_image": 0
            },
            "tags": {
                "language": "eng"
            }
        }
    ]
}
